<?xml version="1.0" ?><!-- Uploaded to: SVG Repo, www.svgrepo.com, Generator: SVG Repo Mixer Tools -->
<svg width="800px" height="800px" viewBox="0 0 128 128" data-name="Layer 2" id="Layer_2" xmlns="http://www.w3.org/2000/svg"><defs><style>.cls-1{fill:#ea563a;}.cls-2{fill:#fed9d7;}.cls-3{fill:#e0dabf;}.cls-4{fill:#f1edd8;}.cls-5{fill:#231f20;}.cls-6{fill:#ccebf7;}</style></defs><title/><path class="cls-1" d="M35.14,32.56S34,10,64.09,10c61.45,0,39,71,39,71s-10.71-4-10.71-11.6-57.26-36.8-57.26-36.8"/><circle class="cls-2" cx="28.68" cy="62.24" r="7.78"/><circle class="cls-2" cx="93.71" cy="62.24" r="7.78"/><circle class="cls-2" cx="61.52" cy="64.81" r="32.19"/><path class="cls-3" d="M34,81.49A50,50,0,0,0,60.76,118H61A53.48,53.48,0,0,0,88.89,81.24l-16.72-10H49.25Z"/><path class="cls-4" d="M61.28,70.9s-7.06,18.71-31.42,9c0,0,6.64-2.47,10.88-6.74C45.48,68.39,52.55,63.15,61.28,70.9Z"/><path class="cls-4" d="M61.76,70.9s7.06,18.71,31.43,9c0,0-6.65-2.47-10.89-6.74C77.56,68.39,70.49,63.15,61.76,70.9Z"/><circle class="cls-5" cx="46.07" cy="57.07" r="3.02"/><circle class="cls-5" cx="73.94" cy="57.07" r="3.02"/><path class="cls-2" d="M65.46,63.13v6.78a3.93,3.93,0,0,1-3.94,3.94h0a3.93,3.93,0,0,1-3.94-3.94V63.13"/><path class="cls-4" d="M61.59,32.63A38.51,38.51,0,0,0,30.7,48.13a16.84,16.84,0,0,0,20.56-1.66,16.88,16.88,0,0,0,20.54.09A16.91,16.91,0,0,0,91.64,47,38.56,38.56,0,0,0,61.59,32.63Z"/><rect class="cls-6" height="10.06" rx="1.48" width="58.3" x="32.89" y="32.56"/><circle class="cls-6" cx="103.06" cy="85" r="4.04"/></svg>